<svg width="38" height="40" viewBox="0 0 38 40" fill="none" xmlns="http://www.w3.org/2000/svg">
<g clip-path="url(#clip0_688_823)">
<path d="M34.6986 32.3366C34.4187 34.4155 33.0199 36.2144 31.0613 37.0138C30.1018 37.4131 29.0628 37.5333 28.0234 37.4131C27.0243 37.2933 26.0248 36.9734 24.9858 36.3745C23.5467 35.5743 22.1076 34.3356 20.4288 32.4968C23.0671 29.2591 24.6655 26.301 25.2653 23.6636C25.5452 22.4241 25.5852 21.3049 25.4654 20.2655C25.3056 19.2664 24.9459 18.3468 24.386 17.5473C23.147 15.7488 21.0685 14.7094 18.7501 14.7094C16.4317 14.7094 14.3533 15.7888 13.1143 17.5473C12.5544 18.3468 12.195 19.2664 12.0349 20.2655C11.8752 21.3049 11.9151 22.4641 12.235 23.6636C12.8343 26.301 14.4731 29.2991 17.0714 32.5363C15.4327 34.3755 13.9536 35.6146 12.5145 36.414C11.4755 37.0138 10.476 37.3336 9.47693 37.453C8.39759 37.5732 7.35819 37.4131 6.43897 37.0537C4.48035 36.2543 3.08156 34.455 2.80164 32.3766C2.68185 31.3775 2.76171 30.3784 3.16142 29.2591C3.28122 28.859 3.48127 28.4601 3.68093 27.9802C3.96084 27.3409 4.28069 26.6608 4.60014 25.9812L4.64047 25.9017C7.39812 19.9456 10.3562 13.8701 13.4341 7.95468L13.5539 7.7143C13.8737 7.11533 14.1932 6.47603 14.5134 5.87627C14.8329 5.23657 15.1927 4.6368 15.6323 4.1169C16.4717 3.15736 17.5909 2.63785 18.83 2.63785C20.0691 2.63785 21.1883 3.15736 22.0277 4.1169C22.4673 4.6368 22.8271 5.23657 23.147 5.87627C23.4668 6.47603 23.7863 7.11533 24.1061 7.7143L24.2263 7.95468C27.2639 13.91 30.222 19.9855 32.98 25.9417V25.9812C33.2999 26.6209 33.5794 27.3409 33.8992 27.9802C34.0993 28.4601 34.2989 28.859 34.4187 29.2591C34.7386 30.2982 34.8584 31.298 34.6986 32.3366ZM18.7501 30.4579C16.5919 27.7402 15.1927 25.1818 14.7131 23.0239C14.5134 22.1043 14.4731 21.3049 14.5933 20.5853C14.6732 19.9456 14.9132 19.3858 15.2326 18.9058C15.9921 17.8277 17.2711 17.1468 18.7501 17.1468C20.2292 17.1468 21.5481 17.7869 22.2677 18.9058C22.5871 19.3858 22.8271 19.9456 22.907 20.5853C23.0268 21.3049 22.9868 22.1442 22.7872 23.0239C22.3076 25.1422 20.9084 27.7002 18.7501 30.4579ZM36.7771 28.3795C36.5774 27.8999 36.3773 27.3804 36.1777 26.9407C35.8578 26.2216 35.538 25.5416 35.2581 24.9019L35.2181 24.8623C32.4605 18.8663 29.5024 12.7907 26.3846 6.79588L26.2648 6.5555C25.9449 5.95573 25.6251 5.31603 25.3056 4.67674C24.9055 3.95678 24.5058 3.19809 23.8665 2.47813C22.5871 0.879284 20.7487 0 18.7901 0C16.7915 0 14.993 0.879284 13.6737 2.39866C13.0743 3.11782 12.6347 3.87731 12.235 4.59727C11.9151 5.23657 11.5953 5.87627 11.2754 6.47603L11.1556 6.71522C8.07814 12.7109 5.08011 18.7868 2.32207 24.7825L2.28214 24.8623C2.00222 25.5016 1.68237 26.1809 1.36252 26.9008C1.16287 27.3409 0.962813 27.8204 0.763157 28.3399C0.243254 29.8186 0.0835293 31.2178 0.283185 32.6565C0.723226 35.6545 2.72178 38.173 5.47982 39.2918C6.51883 39.7319 7.59817 39.9315 8.71744 39.9315C9.03729 39.9315 9.437 39.8916 9.75685 39.8513C11.0758 39.6912 12.4346 39.2523 13.7536 38.4924C15.3927 37.5732 16.9516 36.2543 18.7102 34.3356C20.4688 36.2543 22.0676 37.5732 23.6665 38.4924C24.9858 39.2523 26.3446 39.6912 27.6636 39.8513C27.9834 39.8916 28.3831 39.9315 28.703 39.9315C29.8222 39.9315 30.9411 39.7319 31.9406 39.2918C34.7386 38.173 36.6972 35.6146 37.1368 32.6565C37.4567 31.2573 37.2966 29.8589 36.7771 28.3795Z" fill="#FF385C"/>
</g>
<defs>
<clipPath id="clip0_688_823">
<rect width="37.1014" height="40" fill="white" transform="translate(0.200012)"/>
</clipPath>
</defs>
</svg>
