<svg width="34" height="40" viewBox="0 0 34 40" fill="none" xmlns="http://www.w3.org/2000/svg">
<g clip-path="url(#clip0_688_839)">
<path d="M32.1294 13.6471C29.4627 15.2941 27.8157 18.1176 27.8157 21.2549C27.8157 24.7843 29.9333 28 33.149 29.3333C32.5215 31.3726 31.5804 33.2549 30.4039 34.9804C28.6784 37.4118 26.8745 39.9216 24.2078 39.9216C21.5412 39.9216 20.7568 38.3529 17.6196 38.3529C14.5608 38.3529 13.4627 40 10.9529 40C8.44311 40 6.71762 37.7255 4.75684 34.902C2.1686 30.9804 0.678407 26.4314 0.599976 21.6471C0.599976 13.8824 5.61958 9.72549 10.6392 9.72549C13.3059 9.72549 15.5019 11.451 17.149 11.451C18.7176 11.451 21.2274 9.64706 24.2078 9.64706C27.3451 9.56863 30.3255 11.0588 32.1294 13.6471ZM22.7961 6.35294C24.1294 4.78431 24.8353 2.82353 24.9137 0.784314C24.9137 0.54902 24.9137 0.235294 24.8353 0C22.5608 0.235294 20.4431 1.33333 18.9529 3.05882C17.6196 4.54902 16.8353 6.43137 16.7568 8.47059C16.7568 8.70588 16.7568 8.94118 16.8353 9.17647C16.9921 9.17647 17.2274 9.2549 17.3843 9.2549C19.5019 9.09804 21.4627 8 22.7961 6.35294Z" fill="black"/>
</g>
<defs>
<clipPath id="clip0_688_839">
<rect width="32.549" height="40" fill="white" transform="translate(0.599976)"/>
</clipPath>
</defs>
</svg>
