<svg width="40" height="40" viewBox="0 0 40 40" fill="none" xmlns="http://www.w3.org/2000/svg">
<path d="M37.6 20.4166C37.6 19.1166 37.4833 17.8666 37.2667 16.6666H20V23.7583H29.8667C29.4417 26.05 28.15 27.9916 26.2083 29.2916V33.8916H32.1333C35.6 30.7 37.6 26 37.6 20.4166Z" fill="#4285F4"/>
<path d="M20 38.3333C24.95 38.3333 29.1 36.6916 32.1333 33.8916L26.2083 29.2916C24.5667 30.3916 22.4667 31.0416 20 31.0416C15.225 31.0416 11.1833 27.8166 9.74167 23.4833H3.61667V28.2333C6.63334 34.2249 12.8333 38.3333 20 38.3333Z" fill="#34A853"/>
<path d="M9.74167 23.4834C9.37501 22.3834 9.16667 21.2084 9.16667 20.0001C9.16667 18.7917 9.37501 17.6167 9.74167 16.5167V11.7667H3.61667C2.33334 14.3215 1.66554 17.1411 1.66667 20.0001C1.66667 22.9584 2.37501 25.7584 3.61667 28.2334L9.74167 23.4834Z" fill="#FBBC05"/>
<path d="M20 8.95829C22.6917 8.95829 25.1083 9.88329 27.0083 11.7L32.2667 6.44163C29.0917 3.48329 24.9417 1.66663 20 1.66663C12.8333 1.66663 6.63334 5.77496 3.61667 11.7666L9.74167 16.5166C11.1833 12.1833 15.225 8.95829 20 8.95829Z" fill="#EA4335"/>
</svg>
