<svg width="47" height="18" viewBox="0 0 47 18" fill="none" xmlns="http://www.w3.org/2000/svg">
<path d="M4.17285 17.223C3.55306 17.223 2.98535 17.072 2.46973 16.7699C1.9541 16.4626 1.54264 16.0511 1.23535 15.5355C0.933268 15.0199 0.782227 14.4522 0.782227 13.8324C0.782227 13.2074 0.933268 12.6371 1.23535 12.1215C1.54264 11.6058 1.9541 11.1944 2.46973 10.8871C2.98535 10.5798 3.55306 10.4261 4.17285 10.4261H5.98535V7.28552H4.17285C3.55306 7.28552 2.98535 7.13448 2.46973 6.8324C1.9541 6.52511 1.54264 6.11625 1.23535 5.60583C0.933268 5.09021 0.782227 4.5199 0.782227 3.8949C0.782227 3.2699 0.933268 2.70219 1.23535 2.19177C1.54264 1.67615 1.9541 1.26729 2.46973 0.96521C2.98535 0.657918 3.55306 0.504272 4.17285 0.504272C4.79785 0.504272 5.36816 0.657918 5.88379 0.96521C6.39941 1.26729 6.81087 1.67615 7.11816 2.19177C7.42546 2.70219 7.5791 3.2699 7.5791 3.8949V5.69177H10.7197V3.8949C10.7197 3.2699 10.8708 2.70219 11.1729 2.19177C11.4801 1.67615 11.889 1.26729 12.3994 0.96521C12.915 0.657918 13.4854 0.504272 14.1104 0.504272C14.7354 0.504272 15.3031 0.657918 15.8135 0.96521C16.3291 1.26729 16.738 1.67615 17.04 2.19177C17.3473 2.70219 17.501 3.2699 17.501 3.8949C17.501 4.5199 17.3473 5.09021 17.04 5.60583C16.738 6.11625 16.3291 6.52511 15.8135 6.8324C15.3031 7.13448 14.7354 7.28552 14.1104 7.28552H12.3135V10.4261H14.1104C14.7354 10.4261 15.3031 10.5798 15.8135 10.8871C16.3291 11.1944 16.738 11.6058 17.04 12.1215C17.3473 12.6371 17.501 13.2074 17.501 13.8324C17.501 14.4522 17.3473 15.0199 17.04 15.5355C16.738 16.0511 16.3291 16.4626 15.8135 16.7699C15.3031 17.072 14.7354 17.223 14.1104 17.223C13.4854 17.223 12.915 17.072 12.3994 16.7699C11.889 16.4626 11.4801 16.0511 11.1729 15.5355C10.8708 15.0199 10.7197 14.4522 10.7197 13.8324V12.0199H7.5791V13.8324C7.5791 14.4522 7.42546 15.0199 7.11816 15.5355C6.81087 16.0511 6.39941 16.4626 5.88379 16.7699C5.36816 17.072 4.79785 17.223 4.17285 17.223ZM4.17285 15.6293C4.50619 15.6293 4.80827 15.5485 5.0791 15.3871C5.35514 15.2256 5.57389 15.0095 5.73535 14.7386C5.90202 14.4626 5.98535 14.1605 5.98535 13.8324V12.0199H4.17285C3.84473 12.0199 3.54264 12.1032 3.2666 12.2699C2.99577 12.4314 2.77962 12.6501 2.61816 12.9261C2.45671 13.197 2.37598 13.4991 2.37598 13.8324C2.37598 14.1605 2.45671 14.4626 2.61816 14.7386C2.77962 15.0095 2.99577 15.2256 3.2666 15.3871C3.54264 15.5485 3.84473 15.6293 4.17285 15.6293ZM4.17285 5.69177H5.98535V3.8949C5.98535 3.56156 5.90202 3.25948 5.73535 2.98865C5.57389 2.71781 5.35514 2.50167 5.0791 2.34021C4.80827 2.17875 4.50619 2.09802 4.17285 2.09802C3.84473 2.09802 3.54264 2.17875 3.2666 2.34021C2.99577 2.50167 2.77962 2.71781 2.61816 2.98865C2.45671 3.25948 2.37598 3.56156 2.37598 3.8949C2.37598 4.22823 2.45671 4.53292 2.61816 4.80896C2.77962 5.07979 2.99577 5.29594 3.2666 5.4574C3.54264 5.61365 3.84473 5.69177 4.17285 5.69177ZM12.3135 5.69177H14.1104C14.4437 5.69177 14.7458 5.61365 15.0166 5.4574C15.2874 5.29594 15.5036 5.07979 15.665 4.80896C15.8265 4.53292 15.9072 4.22823 15.9072 3.8949C15.9072 3.56156 15.8265 3.25948 15.665 2.98865C15.5036 2.71781 15.2874 2.50167 15.0166 2.34021C14.7458 2.17875 14.4437 2.09802 14.1104 2.09802C13.777 2.09802 13.4723 2.17875 13.1963 2.34021C12.9255 2.50167 12.7093 2.71781 12.5479 2.98865C12.3916 3.25948 12.3135 3.56156 12.3135 3.8949V5.69177ZM14.1104 15.6293C14.4437 15.6293 14.7458 15.5485 15.0166 15.3871C15.2874 15.2256 15.5036 15.0095 15.665 14.7386C15.8265 14.4626 15.9072 14.1605 15.9072 13.8324C15.9072 13.4991 15.8265 13.197 15.665 12.9261C15.5036 12.6501 15.2874 12.4314 15.0166 12.2699C14.7458 12.1032 14.4437 12.0199 14.1104 12.0199H12.3135V13.8324C12.3135 14.1605 12.3916 14.4626 12.5479 14.7386C12.7093 15.0095 12.9255 15.2256 13.1963 15.3871C13.4723 15.5485 13.777 15.6293 14.1104 15.6293ZM7.5791 10.4261H10.7197V7.28552H7.5791V10.4261ZM34.46 16.8636V0.863647H36.3975V8.80115H36.585L43.7725 0.863647H46.3037L39.585 8.0824L46.3037 16.8636H43.96L38.3975 9.42615L36.3975 11.6761V16.8636H34.46Z" fill="#808080"/>
</svg>
