<svg width="160" height="48" viewBox="0 0 160 48" fill="none" xmlns="http://www.w3.org/2000/svg">
<g clip-path="url(#clip0_688_760)">
<path fill-rule="evenodd" clip-rule="evenodd" d="M41.9203 12.3865C40.9444 12.3865 40.1129 12.2055 39.4258 11.8436C38.7492 11.4816 38.2284 10.9716 37.8626 10.3136C37.5077 9.65549 37.3081 8.88226 37.2638 7.99386C37.2527 7.51126 37.2472 7.00125 37.2472 6.46384C37.2472 5.91543 37.2527 5.39447 37.2638 4.90091C37.3081 4.01251 37.5077 3.24477 37.8626 2.59766C38.2284 1.95055 38.7549 1.44603 39.4424 1.08409C40.1295 0.72215 40.9557 0.54118 41.9203 0.54118C42.7072 0.54118 43.389 0.650857 43.9657 0.870216C44.5421 1.08958 45.0134 1.36926 45.3793 1.70926C45.7561 2.0383 46.0331 2.38379 46.2108 2.74573C46.399 3.10767 46.4988 3.42574 46.5101 3.69993C46.5211 3.79864 46.4935 3.8809 46.427 3.94671C46.3605 4.00156 46.2716 4.02897 46.1609 4.02897H45.1797C45.0686 4.02897 44.9855 4.00702 44.9303 3.96316C44.8857 3.91929 44.8415 3.84251 44.7972 3.73284C44.6975 3.44767 44.5312 3.16799 44.2983 2.89379C44.0765 2.6196 43.7715 2.39475 43.3837 2.21927C43.0065 2.03281 42.5189 1.93959 41.9203 1.93959C41.0442 1.93959 40.3348 2.1754 39.7916 2.64701C39.2595 3.11863 38.9711 3.89735 38.9269 4.98317C38.8936 5.95933 38.8936 6.93544 38.9269 7.9116C38.9711 9.00838 39.2648 9.79806 39.8083 10.2807C40.3514 10.7523 41.0608 10.9881 41.9369 10.9881C42.5242 10.9881 43.0454 10.8839 43.5001 10.6755C43.9658 10.4561 44.3316 10.1216 44.5977 9.67195C44.8638 9.22225 44.9968 8.65193 44.9968 7.96095V7.26998H42.5023C42.3912 7.26998 42.2971 7.23707 42.2196 7.17127C42.1531 7.0945 42.1198 6.99579 42.1198 6.87513V6.34867C42.1198 6.22802 42.1531 6.1348 42.2196 6.06899C42.2971 5.99223 42.3912 5.95383 42.5023 5.95383H46.2607C46.3824 5.95383 46.4769 5.99223 46.5434 6.06899C46.6099 6.1348 46.6432 6.22802 46.6432 6.34867V7.92805C46.6432 8.82741 46.4546 9.61164 46.0778 10.2807C45.7119 10.9497 45.1741 11.4707 44.4646 11.8436C43.7549 12.2055 42.9067 12.3865 41.9203 12.3865ZM4.091 12.1233C4.16859 12.1891 4.26286 12.222 4.37371 12.222H5.23846C5.36043 12.222 5.45465 12.1891 5.52117 12.1233C5.59877 12.0465 5.63758 11.9533 5.63758 11.8436V2.16991H8.8139C8.93587 2.16991 9.03009 2.13701 9.09661 2.0712C9.1742 1.99443 9.21302 1.9012 9.21302 1.79152V1.10054C9.21302 0.979894 9.1742 0.886668 9.09661 0.820861C9.03009 0.744087 8.93587 0.705698 8.8139 0.705698H0.798274C0.687406 0.705698 0.593171 0.744087 0.515566 0.820861C0.449046 0.886668 0.415786 0.979894 0.415786 1.10054V1.79152C0.415786 1.9012 0.449046 1.99443 0.515566 2.0712C0.593171 2.13701 0.687406 2.16991 0.798274 2.16991H3.99122V11.8436C3.99122 11.9533 4.02448 12.0465 4.091 12.1233ZM10.8445 12.1233C10.911 12.1891 11.0052 12.222 11.1272 12.222H11.9753C12.0972 12.222 12.1915 12.1891 12.258 12.1233C12.3356 12.0465 12.3744 11.9533 12.3744 11.8436V7.12191H18.0951V11.8436C18.0951 11.9533 18.1284 12.0465 18.1949 12.1233C18.2725 12.1891 18.3667 12.222 18.4776 12.222H19.3257C19.4476 12.222 19.5419 12.1891 19.6084 12.1233C19.686 12.0465 19.7248 11.9533 19.7248 11.8436V1.10054C19.7248 0.979894 19.686 0.886668 19.6084 0.820861C19.5419 0.744087 19.4476 0.705698 19.3257 0.705698H18.4776C18.3667 0.705698 18.2725 0.744087 18.1949 0.820861C18.1284 0.886668 18.0951 0.979894 18.0951 1.10054V5.64125H12.3744V1.10054C12.3744 0.979894 12.3356 0.886668 12.258 0.820861C12.1915 0.744087 12.0972 0.705698 11.9753 0.705698H11.1272C11.0052 0.705698 10.911 0.744087 10.8445 0.820861C10.7779 0.886668 10.7447 0.979894 10.7447 1.10054V11.8436C10.7447 11.9533 10.7779 12.0465 10.8445 12.1233ZM22.6499 12.222C22.5279 12.222 22.4337 12.1891 22.3672 12.1233C22.3007 12.0465 22.2674 11.9533 22.2674 11.8436V1.08409C22.2674 0.974413 22.3007 0.886668 22.3672 0.820861C22.4337 0.744087 22.5279 0.705698 22.6499 0.705698H23.5313C23.6421 0.705698 23.7308 0.744087 23.7973 0.820861C23.8749 0.886668 23.9138 0.974413 23.9138 1.08409V11.8436C23.9138 11.9533 23.8749 12.0465 23.7973 12.1233C23.7308 12.1891 23.6421 12.222 23.5313 12.222H22.6499ZM26.5818 12.1233C26.6483 12.1891 26.7425 12.222 26.8645 12.222H27.6628C27.7847 12.222 27.8789 12.1891 27.9455 12.1233C28.0231 12.0465 28.0619 11.9533 28.0619 11.8436V3.68348L33.5664 11.9917C33.5886 12.0136 33.6273 12.0575 33.6828 12.1233C33.7493 12.1891 33.8435 12.222 33.9655 12.222H34.7637C34.8746 12.222 34.9633 12.1836 35.0298 12.1068C35.1074 12.0301 35.1462 11.9368 35.1462 11.8271V1.10054C35.1462 0.979894 35.1074 0.886668 35.0298 0.820861C34.9633 0.744087 34.8691 0.705698 34.7471 0.705698H33.9489C33.8269 0.705698 33.7327 0.744087 33.6662 0.820861C33.5996 0.886668 33.5664 0.979894 33.5664 1.10054V9.32646L28.0452 0.936024C28.0342 0.90312 27.9953 0.85925 27.9288 0.804409C27.8623 0.738602 27.7625 0.705698 27.6295 0.705698H26.8645C26.7425 0.705698 26.6483 0.744087 26.5818 0.820861C26.5153 0.886668 26.482 0.979894 26.482 1.10054V11.8436C26.482 11.9533 26.5153 12.0465 26.5818 12.1233ZM49.9967 11.9588C50.651 12.2439 51.4602 12.3865 52.4247 12.3865C53.3227 12.3865 54.0987 12.2604 54.7529 12.0081C55.4181 11.7449 55.9336 11.372 56.2995 10.8894C56.6653 10.3958 56.8483 9.80356 56.8483 9.11258C56.8483 8.48741 56.7096 7.97741 56.4325 7.58256C56.1665 7.17676 55.7507 6.84223 55.1853 6.579C54.6199 6.30482 53.8938 6.04705 53.0068 5.80576C52.275 5.59739 51.682 5.39996 51.2274 5.2135C50.7727 5.02703 50.4401 4.81316 50.2296 4.57188C50.019 4.3196 49.9136 4.00702 49.9136 3.63413C49.9136 3.05283 50.1355 2.62508 50.5788 2.35088C51.0335 2.07669 51.6208 1.93959 52.3416 1.93959C53.051 1.93959 53.6277 2.09314 54.0711 2.40024C54.5144 2.70734 54.7695 3.08573 54.8361 3.53541C54.8803 3.65606 54.9415 3.73832 55.019 3.78219C55.1078 3.82606 55.191 3.848 55.2684 3.848H56.1498C56.2719 3.848 56.3603 3.8151 56.4159 3.74929C56.4715 3.67251 56.499 3.59574 56.499 3.51896C56.4881 3.18993 56.3936 2.8554 56.2163 2.5154C56.0391 2.16443 55.7783 1.84087 55.4347 1.54474C55.0912 1.23764 54.6588 0.996346 54.1376 0.820861C53.6277 0.634405 53.0291 0.54118 52.3416 0.54118C51.4768 0.54118 50.7394 0.67828 50.1298 0.952476C49.5311 1.22667 49.0711 1.59958 48.7495 2.0712C48.4279 2.53185 48.2672 3.05831 48.2672 3.65058C48.2672 4.27574 48.3946 4.79125 48.6497 5.19705C48.9158 5.60285 49.3149 5.94287 49.8471 6.21706C50.3792 6.49124 51.0501 6.74352 51.8593 6.97384C52.6352 7.19321 53.2672 7.3961 53.7551 7.58256C54.243 7.76903 54.6032 7.9829 54.8361 8.22418C55.0798 8.45451 55.2019 8.7616 55.2019 9.14549C55.2019 9.70485 54.9748 10.1545 54.5201 10.4945C54.0767 10.8236 53.3783 10.9881 52.4247 10.9881C51.8037 10.9881 51.2939 10.9058 50.8948 10.7413C50.5066 10.5658 50.202 10.352 49.9801 10.0997C49.7696 9.83646 49.6366 9.57323 49.581 9.31001C49.5587 9.22225 49.5145 9.14549 49.448 9.07968C49.3814 9.01387 49.2817 8.98097 49.1486 8.98097H48.3005C48.2007 8.98097 48.1119 9.01937 48.0344 9.09613C47.9679 9.16194 47.9346 9.2387 47.9346 9.32646C47.9569 9.85292 48.1399 10.352 48.4834 10.8236C48.8383 11.2842 49.3425 11.6626 49.9967 11.9588ZM66.6131 12.3865C65.6708 12.3865 64.8616 12.2275 64.1851 11.9094C63.5089 11.5804 62.9877 11.0813 62.6219 10.4123C62.256 9.73226 62.0512 8.88226 62.0066 7.86224C61.9956 7.37964 61.9899 6.91899 61.9899 6.48029C61.9899 6.03059 61.9956 5.56448 62.0066 5.08188C62.0512 4.07282 62.2617 3.2338 62.6385 2.56476C63.0267 1.88475 63.5588 1.38022 64.235 1.05119C64.9225 0.711183 65.715 0.54118 66.6131 0.54118C67.5224 0.54118 68.315 0.711183 68.9911 1.05119C69.6786 1.38022 70.2165 1.88475 70.6042 2.56476C70.9924 3.2338 71.2029 4.07282 71.2362 5.08188C71.2585 5.56448 71.2694 6.03059 71.2694 6.48029C71.2694 6.91899 71.2585 7.37964 71.2362 7.86224C71.2029 8.88226 70.9981 9.73226 70.6209 10.4123C70.255 11.0813 69.7342 11.5804 69.0577 11.9094C68.3815 12.2275 67.5666 12.3865 66.6131 12.3865ZM66.6131 10.9881C67.4669 10.9881 68.1596 10.7358 68.6918 10.2313C69.2353 9.7268 69.529 8.90967 69.5732 7.77998C69.5955 7.28643 69.6065 6.84773 69.6065 6.46384C69.6065 6.06899 69.5955 5.63029 69.5732 5.14769C69.5513 4.39091 69.4069 3.77671 69.1408 3.30509C68.8861 2.83347 68.5421 2.48798 68.1098 2.26862C67.6774 2.04926 67.1785 1.93959 66.6131 1.93959C66.0699 1.93959 65.582 2.04926 65.1496 2.26862C64.7173 2.48798 64.368 2.83347 64.1019 3.30509C63.8472 3.77671 63.7028 4.39091 63.6696 5.14769C63.6586 5.63029 63.6529 6.06899 63.6529 6.46384C63.6529 6.84773 63.6586 7.28643 63.6696 7.77998C63.7142 8.90967 64.0078 9.7268 64.551 10.2313C65.0945 10.7358 65.7816 10.9881 66.6131 10.9881ZM73.4608 12.1233C73.5273 12.1891 73.6215 12.222 73.7435 12.222H74.575C74.6967 12.222 74.7912 12.1891 74.8577 12.1233C74.9352 12.0465 74.9741 11.9533 74.9741 11.8436V7.40159H80.1959C80.3176 7.40159 80.4121 7.36869 80.4786 7.30288C80.5452 7.22612 80.5784 7.13287 80.5784 7.0232V6.36513C80.5784 6.24447 80.5452 6.15125 80.4786 6.08545C80.4121 6.00868 80.3176 5.97028 80.1959 5.97028H74.9741V2.13701H80.5285C80.6502 2.13701 80.7447 2.1041 80.8112 2.0383C80.8778 1.97249 80.911 1.87926 80.911 1.75862V1.10054C80.911 0.979894 80.8778 0.886668 80.8112 0.820861C80.7447 0.744087 80.6502 0.705698 80.5285 0.705698H73.7435C73.6215 0.705698 73.5273 0.744087 73.4608 0.820861C73.3943 0.886668 73.361 0.979894 73.361 1.10054V11.8436C73.361 11.9533 73.3943 12.0465 73.4608 12.1233ZM0.322772 47.1993C0.537952 47.4121 0.814613 47.5187 1.15276 47.5187H15.6314C18.1521 47.5187 20.2731 47.1384 21.9946 46.3782C23.7468 45.5874 25.0686 44.4777 25.9601 43.0482C26.8823 41.5885 27.3434 39.8551 27.3434 37.848C27.3434 36.1754 26.8823 34.7156 25.9601 33.4688C25.0686 32.2219 24.0388 31.3248 22.8707 30.7774C23.3933 30.5341 23.9466 30.1388 24.5307 29.5914C25.1455 29.044 25.6527 28.3597 26.0523 27.5386C26.4827 26.6871 26.6978 25.714 26.6978 24.6192C26.6978 22.7641 26.2828 21.1676 25.4529 19.8295C24.6536 18.461 23.4086 17.4118 21.7179 16.6819C20.0272 15.9521 17.8601 15.5871 15.2164 15.5871H1.15276C0.814613 15.5871 0.537952 15.6936 0.322772 15.9064C0.107591 16.1193 0 16.393 0 16.7275V46.3782C0 46.7129 0.107591 46.9866 0.322772 47.1993ZM14.7092 41.5885H8.25374V34.0618H14.7092C16.0003 34.0618 16.984 34.4267 17.6602 35.1566C18.3673 35.8865 18.7208 36.7836 18.7208 37.848C18.7208 38.8212 18.3826 39.6879 17.7063 40.4481C17.0301 41.2082 16.031 41.5885 14.7092 41.5885ZM14.2942 28.2685H8.25374V21.5173H14.2942C15.5545 21.5173 16.4921 21.8366 17.1069 22.4752C17.7524 23.0834 18.0752 23.8741 18.0752 24.8473C18.0752 25.8508 17.7524 26.6719 17.1069 27.3106C16.4921 27.9492 15.5545 28.2685 14.2942 28.2685ZM32.7891 47.1993C33.0042 47.4121 33.2809 47.5187 33.6191 47.5187H39.5671C39.9054 47.5187 40.1821 47.4121 40.3971 47.1993C40.6126 46.9866 40.7199 46.7129 40.7199 46.3782V36.2514H45.4692L50.7258 46.287C50.849 46.5304 51.0486 46.8041 51.3252 47.1081C51.6019 47.3818 52.0324 47.5187 52.6163 47.5187H58.7029C58.9795 47.5187 59.2101 47.4274 59.3945 47.2449C59.61 47.0322 59.7173 46.8041 59.7173 46.5607C59.7173 46.4085 59.6712 46.2414 59.579 46.0589L53.2158 34.8373C54.9373 34.077 56.3207 32.9518 57.3657 31.4617C58.4417 29.9715 58.9796 28.1469 58.9796 25.9877C58.9796 22.6729 57.8268 20.1184 55.5213 18.3241C53.2468 16.4995 50.1264 15.5871 46.1609 15.5871H33.6191C33.2809 15.5871 33.0042 15.6936 32.7891 15.9064C32.5739 16.1193 32.4663 16.393 32.4663 16.7275V46.3782C32.4663 46.7129 32.5739 46.9866 32.7891 47.1993ZM46.0687 29.8195H40.7199V21.9278H46.0687C47.5752 21.9278 48.6664 22.2927 49.3425 23.0226C50.0497 23.7525 50.403 24.7104 50.403 25.8964C50.403 27.1129 50.0342 28.0708 49.2964 28.7703C48.5896 29.4698 47.5136 29.8195 46.0687 29.8195ZM98.5905 47.1993C98.8056 47.4121 99.0822 47.5187 99.4205 47.5187H104.954C105.292 47.5187 105.569 47.4121 105.784 47.1993C105.999 46.9866 106.106 46.7129 106.106 46.3782V29.7738L117.357 46.6519C117.419 46.7432 117.557 46.9103 117.772 47.1537C118.018 47.3971 118.387 47.5187 118.879 47.5187H123.813C124.151 47.5187 124.428 47.4121 124.643 47.1993C124.858 46.9559 124.966 46.6822 124.966 46.3782V16.7275C124.966 16.393 124.858 16.1193 124.643 15.9064C124.428 15.6936 124.151 15.5871 123.813 15.5871H118.28C117.941 15.5871 117.665 15.6936 117.45 15.9064C117.235 16.1193 117.127 16.393 117.127 16.7275V34.0162L105.876 16.4538C105.814 16.3322 105.661 16.1649 105.415 15.9521C105.2 15.7088 104.831 15.5871 104.308 15.5871H99.4205C99.0822 15.5871 98.8056 15.6936 98.5905 15.9064C98.3755 16.1193 98.2678 16.393 98.2678 16.7275V46.3782C98.2678 46.7129 98.3755 46.9866 98.5905 47.1993ZM131.732 47.1993C131.948 47.4121 132.224 47.5187 132.562 47.5187H144.782C147.794 47.5187 150.33 47.0778 152.39 46.1958C154.48 45.2834 156.063 43.8996 157.139 42.0447C158.245 40.1897 158.86 37.848 158.983 35.0197C159.014 33.7121 159.03 32.5564 159.03 31.5529C159.03 30.5493 159.014 29.3785 158.983 28.0404C158.891 25.3338 158.276 23.0682 157.139 21.2436C156.002 19.3885 154.373 17.9896 152.252 17.0469C150.13 16.0737 147.563 15.5871 144.551 15.5871H132.562C132.224 15.5871 131.948 15.6936 131.732 15.9064C131.517 16.1193 131.41 16.393 131.41 16.7275V46.3782C131.41 46.7129 131.517 46.9866 131.732 47.1993ZM144.551 40.9499H139.663V22.1559H144.321C146.349 22.1559 147.871 22.6425 148.885 23.6156C149.931 24.5584 150.484 26.0637 150.545 28.1317C150.607 28.9832 150.638 29.7586 150.638 30.4581C150.668 31.1576 150.668 31.857 150.638 32.5565C150.638 33.2559 150.607 34.0466 150.545 34.9285C150.514 36.3578 150.269 37.5134 149.808 38.3954C149.377 39.2774 148.716 39.931 147.825 40.3569C146.964 40.7521 145.873 40.9499 144.551 40.9499ZM83.8625 16.4708C83.6981 16.0298 83.2736 15.7367 82.7985 15.7367H74.7776C74.3025 15.7367 73.8777 16.0298 73.7137 16.4708L62.7198 46.0092C62.4473 46.7417 62.9949 47.5187 63.7837 47.5187H93.792C94.5808 47.5187 95.1289 46.7417 94.8564 46.0092L83.8625 16.4708ZM85.1214 40.4144L78.7881 23.3976L72.4547 40.4144H85.1214Z" fill="url(#paint0_linear_688_760)"/>
</g>
<defs>
<linearGradient id="paint0_linear_688_760" x1="0" y1="24.0299" x2="159.03" y2="24.0299" gradientUnits="userSpaceOnUse">
<stop stop-color="#5728E5"/>
<stop offset="1" stop-color="#9628E5"/>
</linearGradient>
<clipPath id="clip0_688_760">
<rect width="159.118" height="47.486" fill="white" transform="translate(0 0.257008)"/>
</clipPath>
</defs>
</svg>
