<svg width="18" height="19" viewBox="0 0 18 19" fill="none" xmlns="http://www.w3.org/2000/svg">
<path d="M12.755 11.6187H11.965L11.685 11.3487C12.665 10.2087 13.255 8.72865 13.255 7.11865C13.255 3.52865 10.345 0.618652 6.755 0.618652C3.165 0.618652 0.255005 3.52865 0.255005 7.11865C0.255005 10.7087 3.165 13.6187 6.755 13.6187C8.365 13.6187 9.845 13.0287 10.985 12.0487L11.255 12.3287V13.1187L16.255 18.1087L17.745 16.6187L12.755 11.6187ZM6.755 11.6187C4.26501 11.6187 2.255 9.60865 2.255 7.11865C2.255 4.62865 4.26501 2.61865 6.755 2.61865C9.245 2.61865 11.255 4.62865 11.255 7.11865C11.255 9.60865 9.245 11.6187 6.755 11.6187Z" fill="#808080"/>
</svg>
