<svg width="644" height="269" viewBox="0 0 644 269" fill="none" xmlns="http://www.w3.org/2000/svg">
<path fill-rule="evenodd" clip-rule="evenodd" d="M499.628 117H544.401C556.219 117 566.465 114.689 575.139 110.068C583.814 105.409 590.518 98.7424 595.253 90.0682C599.988 81.3561 602.355 70.9394 602.355 58.8182C602.355 46.697 599.969 36.2993 595.196 27.625C590.461 18.9129 583.719 12.2462 574.969 7.62502C566.257 2.96593 555.916 0.636383 543.946 0.636383H499.628V117ZM543.264 90.1818H531.219V27.4546H542.355C548.416 27.4546 553.529 28.3826 557.696 30.2387C561.901 32.0947 565.082 35.2955 567.242 39.8409C569.439 44.3864 570.537 50.7121 570.537 58.8182C570.537 66.9243 569.458 73.25 567.298 77.7955C565.177 82.3409 562.071 85.5417 557.98 87.3978C553.927 89.2538 549.022 90.1818 543.264 90.1818Z" fill="url(#paint0_linear_688_802)"/>
<path d="M185.281 178.136C187.819 180.258 189.24 183.212 189.543 187H219.77C219.732 179.386 217.838 172.739 214.088 167.057C210.376 161.337 205.092 156.905 198.236 153.761C191.38 150.617 183.255 149.045 173.861 149.045C164.656 149.045 156.493 150.598 149.372 153.705C142.289 156.811 136.74 161.148 132.724 166.716C128.747 172.246 126.777 178.705 126.815 186.091C126.777 195.182 129.713 202.36 135.622 207.625C141.569 212.852 149.694 216.583 159.997 218.818L171.588 221.318C175.906 222.265 179.334 223.288 181.872 224.386C184.41 225.447 186.228 226.659 187.327 228.023C188.463 229.348 189.05 230.902 189.088 232.682C189.05 234.576 188.444 236.261 187.27 237.739C186.096 239.216 184.372 240.371 182.099 241.205C179.827 242.038 177.005 242.455 173.634 242.455C169.618 242.455 166.152 241.83 163.236 240.58C160.357 239.33 158.122 237.492 156.531 235.068C154.94 232.644 154.05 229.651 153.861 226.091H123.861C123.899 235.826 125.982 243.818 130.111 250.068C134.277 256.28 140.111 260.883 147.611 263.875C155.149 266.867 163.974 268.364 174.088 268.364C183.937 268.364 192.365 266.981 199.372 264.216C206.418 261.451 211.834 257.417 215.622 252.114C219.41 246.811 221.323 240.333 221.361 232.682C221.323 228.25 220.603 224.159 219.202 220.409C217.838 216.659 215.698 213.288 212.781 210.295C209.865 207.265 206.115 204.633 201.531 202.398C196.948 200.163 191.437 198.364 184.997 197L175.452 194.955C172.687 194.386 170.3 193.742 168.293 193.023C166.285 192.303 164.637 191.508 163.349 190.636C162.062 189.727 161.115 188.723 160.509 187.625C159.94 186.489 159.694 185.22 159.77 183.818C159.808 182.114 160.319 180.598 161.304 179.273C162.289 177.947 163.804 176.905 165.849 176.148C167.933 175.352 170.603 174.955 173.861 174.955C178.974 174.955 182.781 176.015 185.281 178.136Z" fill="url(#paint1_linear_688_802)"/>
<path d="M296.105 187C295.802 183.212 294.382 180.258 291.844 178.136C289.344 176.015 285.537 174.955 280.423 174.955C277.166 174.955 274.495 175.352 272.412 176.148C270.367 176.905 268.851 177.947 267.867 179.273C266.882 180.598 266.37 182.114 266.332 183.818C266.257 185.22 266.503 186.489 267.071 187.625C267.677 188.723 268.624 189.727 269.912 190.636C271.2 191.508 272.848 192.303 274.855 193.023C276.863 193.742 279.249 194.386 282.014 194.955L291.56 197C297.999 198.364 303.51 200.163 308.094 202.398C312.677 204.633 316.427 207.265 319.344 210.295C322.26 213.288 324.401 216.659 325.764 220.409C327.166 224.159 327.885 228.25 327.923 232.682C327.885 240.333 325.973 246.811 322.185 252.114C318.397 257.417 312.98 261.451 305.935 264.216C298.927 266.981 290.499 268.364 280.651 268.364C270.537 268.364 261.711 266.867 254.173 263.875C246.673 260.883 240.84 256.28 236.673 250.068C232.545 243.818 230.461 235.826 230.423 226.091H260.423C260.613 229.651 261.503 232.644 263.094 235.068C264.685 237.492 266.92 239.33 269.798 240.58C272.715 241.83 276.181 242.455 280.196 242.455C283.567 242.455 286.389 242.038 288.662 241.205C290.935 240.371 292.658 239.216 293.832 237.739C295.007 236.261 295.613 234.576 295.651 232.682C295.613 230.902 295.026 229.348 293.889 228.023C292.791 226.659 290.973 225.447 288.435 224.386C285.897 223.288 282.469 222.265 278.151 221.318L266.56 218.818C256.257 216.583 248.132 212.852 242.185 207.625C236.276 202.36 233.34 195.182 233.378 186.091C233.34 178.705 235.31 172.246 239.287 166.716C243.302 161.148 248.851 156.811 255.935 153.705C263.056 150.598 271.219 149.045 280.423 149.045C289.817 149.045 297.942 150.617 304.798 153.761C311.654 156.905 316.939 161.337 320.651 167.057C324.401 172.739 326.295 179.386 326.332 187H296.105Z" fill="url(#paint2_linear_688_802)"/>
<path d="M612.043 187C611.74 183.212 610.319 180.258 607.781 178.136C605.281 176.015 601.474 174.955 596.361 174.955C593.103 174.955 590.433 175.352 588.349 176.148C586.304 176.905 584.789 177.947 583.804 179.273C582.819 180.598 582.308 182.114 582.27 183.818C582.194 185.22 582.44 186.489 583.009 187.625C583.615 188.723 584.562 189.727 585.849 190.636C587.137 191.508 588.785 192.303 590.793 193.023C592.8 193.742 595.187 194.386 597.952 194.955L607.497 197C613.937 198.364 619.448 200.163 624.031 202.398C628.615 204.633 632.365 207.265 635.281 210.295C638.198 213.288 640.338 216.659 641.702 220.409C643.103 224.159 643.823 228.25 643.861 232.682C643.823 240.333 641.91 246.811 638.122 252.114C634.334 257.417 628.918 261.451 621.872 264.216C614.865 266.981 606.437 268.364 596.588 268.364C586.474 268.364 577.649 266.867 570.111 263.875C562.611 260.883 556.778 256.28 552.611 250.068C548.482 243.818 546.399 235.826 546.361 226.091H576.361C576.55 229.651 577.44 232.644 579.031 235.068C580.622 237.492 582.857 239.33 585.736 240.58C588.653 241.83 592.118 242.455 596.134 242.455C599.505 242.455 602.327 242.038 604.599 241.205C606.872 240.371 608.596 239.216 609.77 237.739C610.944 236.261 611.55 234.576 611.588 232.682C611.55 230.902 610.963 229.348 609.827 228.023C608.728 226.659 606.91 225.447 604.372 224.386C601.834 223.288 598.406 222.265 594.088 221.318L582.497 218.818C572.194 216.583 564.069 212.852 558.122 207.625C552.213 202.36 549.277 195.182 549.315 186.091C549.277 178.705 551.247 172.246 555.224 166.716C559.24 161.148 564.789 156.811 571.872 153.705C578.993 150.598 587.156 149.045 596.361 149.045C605.755 149.045 613.88 150.617 620.736 153.761C627.592 156.905 632.876 161.337 636.588 167.057C640.338 172.739 642.232 179.386 642.27 187H612.043Z" fill="url(#paint3_linear_688_802)"/>
<path d="M436.29 176.091V150.636H537.426V176.091H502.426V267H471.29V176.091H436.29Z" fill="url(#paint4_linear_688_802)"/>
<path d="M339.94 150.636V267H423.577V241.545H371.531V221.546H419.486V196.091H371.531V176.091H423.804V150.636H339.94Z" fill="url(#paint5_linear_688_802)"/>
<path fill-rule="evenodd" clip-rule="evenodd" d="M34.2301 267H0.13916L38.5482 150.636H81.7301L120.139 267H86.0482L79.3244 244.727H40.9539L34.2301 267ZM60.5937 182.682L72.1889 221.091H48.0894L59.6846 182.682H60.5937Z" fill="url(#paint6_linear_688_802)"/>
<path d="M484.685 0.636383V117H458.321L416.276 55.8637H415.594V117H384.003V0.636383H410.821L452.185 61.5455H453.094V0.636383H484.685Z" fill="url(#paint7_linear_688_802)"/>
<path fill-rule="evenodd" clip-rule="evenodd" d="M252.795 117H286.886L293.61 94.7273H331.981L338.705 117H372.795L334.386 0.636383H291.204L252.795 117ZM324.845 71.0909L313.25 32.6818H312.341L300.746 71.0909H324.845Z" fill="url(#paint8_linear_688_802)"/>
<path fill-rule="evenodd" clip-rule="evenodd" d="M149.784 117V0.636383H200.011C208.648 0.636383 216.205 2.20835 222.682 5.35229C229.159 8.49623 234.197 13.0228 237.796 18.9318C241.394 24.8409 243.193 31.9243 243.193 40.1818C243.193 48.5152 241.337 55.5417 237.625 61.2614C234.196 66.6002 229.462 70.7179 223.426 73.6146L247.057 117H212.739L192.308 78.5909H181.375V117H149.784ZM181.375 54.0455H192.511C196.224 54.0455 199.386 53.5909 202 52.6818C204.652 51.7349 206.678 50.2387 208.08 48.1932C209.519 46.1477 210.239 43.4773 210.239 40.1818C210.239 36.8485 209.519 34.1402 208.08 32.0568C206.678 29.9356 204.652 28.3826 202 27.3977C199.386 26.375 196.224 25.8637 192.511 25.8637H181.375V54.0455Z" fill="url(#paint9_linear_688_802)"/>
<path fill-rule="evenodd" clip-rule="evenodd" d="M42.9092 0.636383V117H97.6819C106.129 117 113.402 115.58 119.5 112.739C125.599 109.898 130.296 105.996 133.591 101.034C136.924 96.072 138.591 90.4091 138.591 84.0455C138.591 78.5531 137.379 73.7803 134.955 69.7273C132.53 65.6364 129.273 62.4356 125.182 60.125C121.091 57.7765 116.546 56.5076 111.546 56.3182V55.1818C116.053 54.2728 119.993 52.644 123.364 50.2955C126.735 47.9091 129.349 44.9546 131.205 41.4318C133.099 37.9091 134.046 34.0076 134.046 29.7273C134.046 23.8182 132.493 18.6856 129.386 14.3296C126.318 9.9735 121.754 6.60229 115.693 4.21593C109.671 1.82957 102.227 0.636383 93.3637 0.636383H42.9092ZM89.2728 91.7728H74.5001V67.2273H89.7274C92.9471 67.2273 95.6933 67.7197 97.966 68.7046C100.277 69.6894 102.057 71.1288 103.307 73.0228C104.557 74.9167 105.182 77.2273 105.182 79.9546C105.182 83.8561 103.856 86.8106 101.205 88.8182C98.5531 90.7879 94.5759 91.7728 89.2728 91.7728ZM87.4547 47.6818H74.5001V25.4091H87.9092C91.8486 25.4091 95.1062 26.375 97.6819 28.3068C100.258 30.2008 101.546 32.947 101.546 36.5455C101.546 38.9318 100.939 40.9584 99.7274 42.625C98.5531 44.2538 96.9054 45.5038 94.7842 46.375C92.663 47.2462 90.2198 47.6818 87.4547 47.6818Z" fill="url(#paint10_linear_688_802)"/>
<defs>
<linearGradient id="paint0_linear_688_802" x1="322" y1="0.636383" x2="322" y2="268.364" gradientUnits="userSpaceOnUse">
<stop stop-color="#DE80FF"/>
<stop offset="1" stop-color="#7C5CFF"/>
</linearGradient>
<linearGradient id="paint1_linear_688_802" x1="322" y1="0.636383" x2="322" y2="268.364" gradientUnits="userSpaceOnUse">
<stop stop-color="#DE80FF"/>
<stop offset="1" stop-color="#7C5CFF"/>
</linearGradient>
<linearGradient id="paint2_linear_688_802" x1="322" y1="0.636383" x2="322" y2="268.364" gradientUnits="userSpaceOnUse">
<stop stop-color="#DE80FF"/>
<stop offset="1" stop-color="#7C5CFF"/>
</linearGradient>
<linearGradient id="paint3_linear_688_802" x1="322" y1="0.636383" x2="322" y2="268.364" gradientUnits="userSpaceOnUse">
<stop stop-color="#DE80FF"/>
<stop offset="1" stop-color="#7C5CFF"/>
</linearGradient>
<linearGradient id="paint4_linear_688_802" x1="322" y1="0.636383" x2="322" y2="268.364" gradientUnits="userSpaceOnUse">
<stop stop-color="#DE80FF"/>
<stop offset="1" stop-color="#7C5CFF"/>
</linearGradient>
<linearGradient id="paint5_linear_688_802" x1="322" y1="0.636383" x2="322" y2="268.364" gradientUnits="userSpaceOnUse">
<stop stop-color="#DE80FF"/>
<stop offset="1" stop-color="#7C5CFF"/>
</linearGradient>
<linearGradient id="paint6_linear_688_802" x1="322" y1="0.636383" x2="322" y2="268.364" gradientUnits="userSpaceOnUse">
<stop stop-color="#DE80FF"/>
<stop offset="1" stop-color="#7C5CFF"/>
</linearGradient>
<linearGradient id="paint7_linear_688_802" x1="322" y1="0.636383" x2="322" y2="268.364" gradientUnits="userSpaceOnUse">
<stop stop-color="#DE80FF"/>
<stop offset="1" stop-color="#7C5CFF"/>
</linearGradient>
<linearGradient id="paint8_linear_688_802" x1="322" y1="0.636383" x2="322" y2="268.364" gradientUnits="userSpaceOnUse">
<stop stop-color="#DE80FF"/>
<stop offset="1" stop-color="#7C5CFF"/>
</linearGradient>
<linearGradient id="paint9_linear_688_802" x1="322" y1="0.636383" x2="322" y2="268.364" gradientUnits="userSpaceOnUse">
<stop stop-color="#DE80FF"/>
<stop offset="1" stop-color="#7C5CFF"/>
</linearGradient>
<linearGradient id="paint10_linear_688_802" x1="322" y1="0.636383" x2="322" y2="268.364" gradientUnits="userSpaceOnUse">
<stop stop-color="#DE80FF"/>
<stop offset="1" stop-color="#7C5CFF"/>
</linearGradient>
</defs>
</svg>
